<svg width="476" height="622" viewBox="0 0 476 622" fill="none" xmlns="http://www.w3.org/2000/svg">
<g clip-path="url(#clip0_210_26)">
<path d="M335.712 325.3L428.852 251.191L360.639 58.3178L366.955 50.2238L357.126 24.8714L299.079 0.481079L278.483 10.6196L257.61 23.1996L187.58 6.33811L133.31 0.481079L107.096 14.2998L75.3112 41.2398L33.072 62.5031L160.548 122.998L226.174 332.913L335.712 325.3Z" fill="white"/>
<path d="M449.894 345.926L459.398 353.238L458.279 372.95L449.894 386.757L446.694 393.696L456.114 395.452L461.96 414.334L399.065 525.173L391.726 533.23L354.612 511.197L345.457 424.148L409.952 345.926H449.894Z" fill="white"/>
<path d="M360.651 436.776C360.651 436.776 362.865 426.228 369.313 422.007C375.762 417.786 403.396 409.571 406.367 405.903C409.339 402.235 426.398 371.206 425.616 364.411C424.834 357.616 423.643 355.86 423.643 355.86L442.892 347.369L453.924 349.858L451.939 383.329C451.939 383.329 443.71 394.827 444.528 395.452C445.346 396.077 428.732 401.982 428.732 401.982L404.058 449.933C404.058 449.933 387.131 450.715 385.94 451.857C384.893 452.976 383.942 454.191 383.1 455.465L362.155 441.983L360.651 436.776Z" fill="#414042"/>
<path d="M0.120361 389.306L15.0743 447.66C15.0743 447.66 74.854 503.909 75.3112 511.197C75.7683 518.486 112.979 535.876 112.979 535.876L155.627 548.637L182.395 539.015L204.411 545.762L246.121 577.886L268.161 617.574L279.71 621.483L292.631 611.861L302.809 542.467L276.931 521.649L263.288 528.865L241.742 515.347L224.333 414.334L68.8869 348.584L45.5717 371.976L0.120361 389.306Z" fill="white"/>
<path d="M243.354 517.824C235.57 511.811 228.195 505.16 219.894 499.989C212.279 495.25 209.861 490.74 213.145 481.648C215.852 474.131 215.551 465.448 216.008 457.245C215.888 454.66 214.817 452.206 213.001 450.354C198.768 435.609 184.476 420.961 167.285 409.463C163.339 406.829 160.872 401.91 157.985 397.869C156.986 396.486 156.842 394.514 156.216 392.854C151.019 379.18 149.455 378.422 135.031 382.03C133.443 382.415 130.904 382.198 129.918 381.176C118.236 369.149 105.363 373.226 92.4306 378.157C90.0245 379.083 87.7146 380.443 85.3927 381.585L95.1374 393.287L84.7792 384.989L82.8663 386.757C88.3041 399.312 102.38 405.194 109.129 417.208C109.779 414.611 109.935 411.953 108.72 410.281C104.569 404.544 99.9497 399.156 95.4863 393.636C100.563 398.868 105.941 403.859 110.573 409.451C112.979 412.313 114.687 413.697 118.729 413.059C128.354 411.544 138.195 410.822 147.939 409.884C149.576 409.788 151.152 410.546 152.09 411.893L115.445 415.765C127.127 435.008 136.522 454.251 131.482 477.162C132.998 454.636 126.02 434.803 113.328 416.751L110.994 417.485C111.872 420.167 112.197 423.186 113.701 425.495C124.396 441.899 128.618 461.683 125.563 481.022C124.949 485.232 123.349 489.237 120.871 492.7L117.562 476.657C98.8789 477.246 73.0494 500.157 75.8766 513.29C70.4869 506.495 65.4341 499.375 59.6233 492.953C49.3372 481.624 38.7022 470.619 27.971 459.711C24.3017 455.983 19.718 453.156 16.0126 449.464C14.9058 448.358 14.4126 444.906 15.2667 443.824C20.9572 436.68 27.2973 430.029 33.0479 422.921C42.4317 411.315 51.0335 411.303 59.1902 424.124C64.4476 432.338 68.4658 441.358 72.8449 450.102C75.1908 454.768 73.2539 458.737 69.9335 462.128C67.5274 464.594 64.604 466.638 62.3663 469.26C54.1374 478.882 54.2457 481.804 62.3663 491.425C65.2295 494.805 67.8883 498.353 70.8598 502.105C81.0497 483.476 95.4984 470.956 118.597 468.743C116.323 461.671 114.206 455.008 112.04 448.358C110.368 443.186 105.905 445.303 102.969 445.7C96.4367 446.578 94.3314 444.064 92.6712 437.918C90.2651 428.874 86.0183 420.299 82.5655 411.52C79.1248 405.723 76.3457 399.373 72.0869 394.261C65.3498 386.179 57.4338 379.18 51.7674 376.029C55.4968 380.31 61.8249 387.406 67.9364 394.694C70.0297 397.448 71.9666 400.311 73.7472 403.269C64.5438 394.55 55.4607 385.71 46.0769 377.231C44.5491 375.848 41.5775 376.029 39.2797 375.512L38.7142 377.352L50.6606 390.401L50.3478 390.762C46.7386 387.49 43.4543 383.906 39.5203 381.14C37.6315 379.793 34.3111 378.855 32.302 379.565C23.4956 382.631 14.966 386.516 6.20775 389.751C4.42724 390.413 2.08128 389.559 0 389.402C1.26321 387.923 2.23768 385.722 3.83774 385.097C14.5209 380.9 25.3604 377.135 36.0675 372.998C38.8466 371.928 41.3008 370.003 44.9822 367.826L29.6071 359.576L30.0523 357.544L37.2706 359.781C43.3821 352.144 47.8815 342.847 55.3164 338.65C60.0203 335.98 63.9423 332.396 68.55 329.822C70.4989 328.956 72.6885 328.812 74.7457 329.389C77.2721 330.255 79.7023 331.409 81.964 332.829C96.16 340.369 91.1674 340.694 102.031 327.862C104.208 325.3 105.496 323.772 108.973 324.963C110.573 325.504 113.785 325.36 114.206 324.542C115.048 322.377 115.265 320.02 114.831 317.735C114.446 315.27 113.207 312.924 111.92 309.412C106.242 311.024 99.8895 312.563 93.6577 314.68C85.6574 317.422 77.7172 320.393 69.9575 323.748C64.8325 325.973 62.4866 322.979 60.1527 319.611C57.8187 316.244 56.8683 313.213 60.7903 309.845C67.5153 304.049 73.8073 297.759 80.2076 291.805C81.8678 292.07 84.2618 293.104 86.3311 292.647C91.2516 291.577 91.9253 288.221 88.5688 284.228C85.6093 280.753 82.9265 277.012 79.8827 273.621C79.0647 272.707 77.3202 272.671 76.1051 272.021C74.2645 271.035 72.496 269.868 70.7395 268.75C68.9831 267.632 67.395 266.669 65.819 265.491C64.5077 264.505 62.7031 263.542 62.2099 262.171C56.8804 247.366 51.0937 232.67 47.0153 217.516C45.8123 212.91 49.5056 207.005 50.9012 201.677C51.2501 200.318 52.1042 198.49 51.4907 197.576C44.5491 186.126 49.8666 176.276 55.2683 166.378C57.0488 163.107 58.7331 159.776 60.6339 156.131L67.9364 158.032C67.5875 155.915 67.4552 154.424 67.0943 153.041C66.3003 149.878 63.8701 146.161 64.8085 143.708C68.0086 135.289 72.3757 127.448 76.2976 119.366C73.5787 128.338 67.6477 136.516 69.0793 148.025C72.7847 138.043 76.069 129.444 79.0887 120.761C79.3413 120.015 77.8857 118.68 77.248 117.61C78.0781 116.696 78.9083 115 79.7624 114.976C86.8243 114.795 90.1448 110.165 91.1433 104.332C91.8892 100.003 93.6938 99.1246 97.4593 98.4872C100.503 97.97 103.318 95.9856 106.23 94.6506C106.097 93.8809 102.62 97.3807 102.428 96.599C77.4044 87.17 55.7254 73.5316 30.6418 64.2229L29.932 61.8777C59.5993 52.2563 83.131 33.2179 106.001 13.3136C105.869 13.3136 114.11 7.38445 120.293 6.39825C113.075 11.8223 105.724 17.1502 98.6383 22.6945C91.0952 28.5395 83.7205 34.601 74.866 41.7088C87.9191 44.5592 97.9526 53.0861 111.511 50.1276C113.376 57.536 121.544 56.4175 127.283 58.9672C138.712 64.0545 150.49 68.3361 162.111 72.9904C164.373 73.9045 166.563 74.9869 169.161 76.1535C172.662 71.2465 176.103 66.4479 179.544 61.6372L180.626 62.2385L172.482 77.8733L210.655 97.4047L217.007 89.8519C215.659 93.9531 214.865 96.3704 214.059 98.86L239.492 113.292L238.71 114.759C228.111 109.407 217.488 104.092 206.901 98.7036C197.373 93.8929 187.748 89.2386 178.449 83.9949C173.528 81.2167 169.438 81.7579 164.89 84.4038C161.931 85.9433 158.899 87.3143 155.795 88.517L154.881 86.6167L168.343 79.0399C156.782 74.3374 146.255 69.659 135.452 65.8105C119.355 60.0256 102.837 55.3351 86.9086 49.1293C77.2841 45.377 69.0071 45.1966 60.0203 50.765C52.9704 55.1307 45.0182 57.981 37.2706 61.6612C63.5573 71.908 89.6876 80.904 114.735 92.3655C126.669 97.8137 136.162 97.8257 146.472 90.8381C147.747 90.1767 149.106 89.6956 150.514 89.3829L151.248 90.9825C148.421 92.2934 145.593 93.5562 142.826 94.9032C139.831 96.3584 136.883 97.8979 132.733 99.9905C137.834 102.781 142.538 104.958 146.821 107.76C163.194 118.44 180.241 128.301 195.412 140.485C205.036 148.254 211.87 159.571 219.942 169.349C222.613 172.584 223.551 177.768 229.362 177.551C229.976 177.551 231.371 179.427 231.167 179.872C228.291 186.126 232.899 189.963 235.666 194.389C236.087 194.882 236.436 195.423 236.701 196.012C239.901 207.943 243.269 219.825 246.109 231.84C247.215 236.554 246.987 241.557 247.54 246.416C250.307 270.602 242.812 293.044 235.979 315.618C235.089 318.589 234.499 321.632 233.777 324.662L234.03 324.458C233.007 329.461 231.046 333.033 225.356 334.801C222.721 335.607 220.243 340.201 219.629 343.448C218.511 349.281 218.859 355.391 218.583 361.392C218.318 366.9 216.79 373.13 225.801 372.962C226.439 372.962 227.004 374.67 227.762 375.259C233.212 379.3 237.735 385.241 246.193 384.471L234.547 375.439L235.221 374.453L245.038 380.527C258.909 370.905 274.019 373.214 287.867 370.484C284.943 371.471 281.948 372.228 278.916 372.757C271.288 374.285 263.529 375.343 256.058 377.568C253.519 378.326 251.715 381.898 249.898 384.411C249.646 384.748 251.306 386.468 252.016 387.454L257.898 380.683L259.727 381.705L257.321 390.557C265.646 378.891 265.646 378.891 280.696 376.907C283.548 376.39 286.423 376.089 289.31 375.993C291.452 375.908 293.581 376.438 295.434 377.532C310.328 388.356 325.245 399.24 339.766 410.606C343.207 413.3 346.985 417.677 347.418 421.646C348.344 429.5 353.962 431.027 358.57 433.889L348.488 419.854L362.516 431.665L362.384 431.58C359.159 439.662 359.845 441.418 368.014 445.94L375.605 450.126C377.927 451.412 380.225 452.711 382.499 453.986C389.392 445.363 389.392 445.363 404.334 444.593C412.912 452.29 411.745 459.951 406.271 468.887C399.053 480.625 393.242 493.193 386.733 505.352C385.506 507.77 383.605 509.778 381.248 511.125L384.857 502.875C379.972 500.698 381.248 497.307 383.425 493.41C388.237 484.666 392.725 475.694 397.585 466.951C398.981 464.425 399.57 459.988 404.599 462.224C404.996 462.405 407.474 459.891 407.258 459.11C406.451 456.187 405.044 451.148 403.648 451.076C398.114 450.811 392.58 451.545 387.299 453.228C385.723 453.734 384.099 459.098 384.977 461.202C387.383 466.927 384.821 471.028 382.33 475.502C377.061 484.979 371.876 494.504 366.33 504.619H361.638L358.654 511.618L392.003 533.267C389.597 533.579 388.694 534 388.213 533.712C377.735 527.41 365.788 522.515 357.427 514.084C352.615 509.177 345.156 502.911 346.082 493.302C346.888 485.027 342.726 479.23 335.808 474.624C325.799 467.973 316.21 460.697 306.538 453.553C302.833 450.811 299.392 447.72 294.76 443.932C289.298 450.462 282.573 456.379 278.675 463.776C274.525 471.653 268.088 475.803 260.93 478.99C255.396 481.395 251.546 484.642 248.984 489.814C246.891 493.987 244.978 498.233 242.969 502.466C240.514 507.565 239.239 512.749 243.354 517.824ZM268.088 431.352L265.261 431.46L263.288 434.755L268.161 438.255H267.92H270.855L272.852 435.922L268.1 431.388L268.088 431.352ZM115.228 331.77V331.975L108.419 330.014L108.082 331.506L110.994 333.911L109.718 335.968L110.717 336.882L115.228 331.77ZM204.543 312.527C209.03 318.541 217.139 321.644 224.309 319.311L204.411 312.672C204.05 312.191 203.797 311.469 203.316 311.265C188.494 303.363 176.488 291.817 171.339 276.267C161.618 247.018 164.734 218.298 181.685 191.875C184.356 187.726 188.097 184.274 191.31 180.486L192.657 181.76C191.622 183.168 190.636 184.611 189.565 185.982C176.512 202.627 169.306 221.677 169.715 242.652C170.052 259.694 167.706 278.516 186.221 289.628C186.702 289.917 185.908 292.322 185.631 294.259L189.036 293.056C189.529 300.813 212.122 313.754 224.899 313.345C226.415 307.091 227.967 300.729 229.47 294.535C189.77 275.124 179.532 219.969 217.632 191.286C212.82 185.417 208.08 179.56 203.268 173.727C202.402 173.041 201.475 172.452 200.489 171.971C200.85 173.594 201.307 175.206 201.86 176.781C202.462 177.948 203.123 179.078 203.869 180.161L202.498 181.364L196.278 172.861C193.102 175.146 191.045 176.36 189.312 177.924C160.608 203.83 156.962 255.088 172.987 286.165C179.508 298.745 187.7 311.337 204.543 312.491V312.527ZM169.871 163.973C173.216 164.634 177.45 166.931 179.736 165.669C186.954 161.712 193.451 156.408 200.188 151.633L199.358 150.298L180.217 162.109L179.387 160.822L195.376 148.795L172.602 128.626C165.793 134.543 159.862 139.571 154.051 144.754C138.977 158.212 126.104 173.45 123.217 194.064C121.364 207.365 115.469 213.776 102.127 215.568C92.7434 216.77 92.8276 217.973 88.7613 209.013C82.9385 196.06 77.3082 183.011 71.4734 170.058C69.4041 165.488 67.4552 160.533 60.6459 160.75C57.6984 168.23 54.6306 175.627 51.9358 183.119C51.3463 184.984 51.2982 186.992 51.8275 188.88C59.6835 216.915 69.9575 244.203 82.5294 270.458C84.0814 273.717 85.8499 275.389 89.5914 274.884C106.362 272.599 123.132 270.386 139.915 268.245C144.727 267.619 146.821 265.19 146.712 260.259C146.472 254.041 146.616 247.811 147.145 241.606C148.12 231.912 148.854 222.05 151.344 212.741C152.643 207.859 153.486 204.575 149.239 201.352C145.353 198.405 145.882 195.242 148.613 191.731C155.831 182.458 162.942 173.101 170.088 163.78L169.871 163.973ZM89.4109 351.59C89.05 352.24 88.6891 352.877 88.3161 353.515C83.7084 351.109 79.185 348.463 74.469 346.299C56.7961 338.072 56.1706 338.289 45.692 354.609C45.4874 354.922 45.5957 355.451 45.692 354.958C57.53 363.208 68.9349 371.254 80.5805 379.011C81.7836 379.853 84.2979 379.709 85.8619 379.12C94.3675 375.969 102.765 372.529 111.294 369.149L94.0788 357.471C96.9901 356.269 100.287 355.403 102.825 353.563C106.542 350.869 109.959 347.754 114.855 350.123C124.48 354.814 134.381 359.372 143.729 364.892C148.12 367.478 155.206 369.835 151.416 377.917C151.248 378.29 152.451 379.216 152.848 379.973C155.11 384.291 158.238 388.392 159.344 393.01C161.353 401.321 167.248 405.242 174.106 409.078C176.608 405.41 178.677 401.706 181.408 398.555C183.658 395.969 186.618 392.289 189.361 392.193C195.376 392 196.651 388.416 198.047 383.894C179.243 367.442 159.128 353.058 136.691 341.801C127.127 336.99 118.417 335.98 109.021 341.211C107.818 341.849 106.374 341.921 105.279 342.63C99.0594 346.695 93.6577 343.316 88.1116 340.947C83.2152 338.866 78.3909 336.461 73.3141 335.029C71.3531 334.476 68.7425 336.232 65.7709 337.146L89.4109 351.59ZM96.1721 208.785C110.284 208.568 118.789 204.383 119.162 191.213C119.162 189.361 118.729 186.403 117.526 185.789C110.946 182.097 112.125 176.721 115.12 172.271C122.074 161.964 129.533 152.018 137.449 142.397C143.957 134.567 145.678 134.712 153.967 139.595C158.081 136.311 162.184 133.016 165.997 129.973L144.799 119.029C138.303 124.742 131.217 130.394 124.829 136.756C118.441 143.118 113.063 149.986 107.216 156.6L106.374 155.987L114.976 140.593C106.001 137.322 107.36 131.212 110.164 124.176C112.907 117.429 114.819 110.346 117.105 103.382C102.404 102.179 95.9074 103.611 91.3719 116.912C87.6424 127.844 84.2739 138.933 79.9429 149.625C75.2871 161.135 75.672 171.502 83.2753 181.688C85.8619 185.128 87.0289 189.638 88.8816 193.715L102.115 162.037C100.274 173.787 97.1225 184.996 94.8968 196.373C94.1991 200.426 95.739 204.936 96.1721 208.724V208.785ZM304.457 442.837C307.849 445.146 311.362 447.383 314.695 449.849C324.319 456.945 333.631 464.558 343.628 471.112C347.959 473.674 350.979 477.956 351.953 482.886C352.855 487.228 352.843 491.798 354.059 496.02C354.612 497.932 357.343 500.83 358.787 500.602C364.212 499.989 369.614 498.401 369.301 491.089C362.251 489.188 356.537 464.991 360.158 451.773C356.549 449.368 352.94 446.77 349.078 444.557C337.95 437.979 337.36 436.812 341.86 424.352C343.616 419.542 342.87 416.342 338.359 413.324C330.431 407.996 323.14 401.718 315.2 396.39C302.508 387.863 289.743 378.915 273.021 385.867C288.973 396.077 303.735 407.948 316.331 423.414L304.457 442.837ZM232.947 291.156C234.668 282.244 236.364 274.222 237.639 266.128C237.928 264.348 237.35 261.57 236.099 260.536C223.78 250.205 222.457 230.854 231.455 219.404C236.869 212.513 234.319 208.219 230.782 201.893C223.383 205.982 216.971 210.637 212.255 217.636C211.112 219.32 208.357 221.533 206.961 221.16C201.391 219.681 199.743 223.06 199.743 226.969C199.49 236.59 199.923 246.284 200.08 255.954L202.293 254.51C205.722 255.99 209.716 256.807 212.423 259.129C215.503 261.762 216.983 266.212 219.942 269.027C225.741 274.547 230.433 280.019 225.452 288.654L232.947 291.156ZM146.941 296.339L145.918 297.542C148.733 298.841 151.476 300.284 154.135 301.86C169.498 312.046 184.813 322.317 200.056 332.696C201.259 333.55 202.678 335.511 202.594 336.858C201.812 348.776 203.942 352.492 215.118 357.628C215.84 349.209 216.562 340.79 217.259 332.853C208.369 326.238 198.083 319.912 189.445 311.818C180.807 303.724 173.805 293.934 165.757 284.457C154.929 286.862 154.929 286.862 147.771 276.231C142.502 277.674 141.611 282.04 144.848 289.003C145.738 291.384 146.436 293.838 146.941 296.339ZM128.089 277.987C130.086 285.708 126.068 287.608 120.257 288.714C113.725 289.917 107.409 292.431 100.864 293.525C93.4652 294.824 87.2454 301.824 78.8 298.083C78.4752 297.951 77.6691 298.661 77.1999 299.106C71.6178 304.397 66.0476 309.725 60.5497 314.981C66.0115 320.994 65.8792 320.489 72.0268 318.589C91.5884 312.732 111.294 307.332 130.868 301.523C133.816 300.633 136.51 299.033 138.712 296.881C145.196 290.362 140.625 283.507 139.506 276.291L128.089 277.987ZM182.347 179.463C181.24 177.491 180.157 175.579 179.086 173.69C170.088 175.206 166.19 182.229 162.244 188.904C159.705 193.234 158.177 198.177 150.971 194.785C159.826 203.769 154.953 214.161 154.953 223.469C159.922 225.285 162.051 224.083 162.917 219.32C165.721 204.527 172.446 190.768 182.395 179.463H182.347ZM144.174 115.722L122.134 107.11L115.818 125.824C122.772 122.216 127.476 112.703 135.753 122.384L144.174 115.722ZM53.2712 206.187C54.6547 228.472 65.7589 247.234 73.7231 267.162L75.275 266.585C67.9725 246.476 60.6579 226.356 53.3193 206.223L53.2712 206.187ZM80.8452 389.306C82.2287 381.224 70.8478 370.713 55.7254 365.878C61.1031 378.35 74.0599 380.022 80.8452 389.306ZM246.181 257.072C245.074 255.292 243.799 253.62 242.379 252.069C236.364 246.5 234.162 234.486 238.229 228.929C238.902 227.667 239.384 226.32 239.66 224.912C238.156 225.778 236.051 226.271 235.257 227.558C229.037 237.601 233.777 252.514 246.181 257.072ZM72.2674 153.101L73.6148 153.546C76.0209 147.208 78.2827 140.833 80.8331 134.567C86.9807 119.305 87.089 119.077 84.2739 113.833L72.2674 153.101ZM110.043 441.526L96.0879 418.579L95.0893 419.109L103.787 441.959L110.043 441.526ZM404.094 466.999L402.445 465.941C396.947 476.007 391.461 486.074 385.976 496.14L388.141 497.343L404.094 466.999ZM238.409 447.756H237.386L235.077 495.935H236.352L238.409 447.756ZM227.173 410.846C226.475 404.027 225.861 398.098 225.356 393.215C224.021 393.864 222.793 394.694 221.687 395.68C220.869 396.919 220.231 398.254 219.786 399.673C227.557 399.457 224.021 406.709 227.173 410.798V410.846ZM265.514 416.198L264.587 417.052L281.899 432.206L283.102 430.738L265.514 416.198ZM276.209 396.39C271.541 402.403 276.365 403.835 279.818 406.011C284.751 400.395 279.385 398.988 276.209 396.342V396.39ZM270.891 394.586V392.385L264.876 387.093L261.267 395.512L270.891 394.586Z" fill="black"/>
<path d="M222.24 564.644C223.684 564.644 225.127 564.404 227.389 564.211C214.949 552.858 201.379 546.664 186.93 540.459C185.547 539.857 181.481 539.677 180.723 540.459C173.504 547.831 164.012 544.764 155.699 549.154C154.388 549.851 152.09 549.31 150.478 548.769C138.171 544.764 125.899 540.615 113.664 536.333C112.702 535.997 111.908 534.409 111.547 533.23C109.682 527.313 107.854 521.372 106.326 515.359C106.23 513.879 106.699 512.424 107.637 511.282C110.284 507.926 112.702 504.402 114.855 500.71C104.281 506.579 94.8126 514.156 81.2542 512.869C82.4572 511.51 83.3715 509.802 84.8633 508.852C91.1793 504.715 97.5555 500.626 104.112 496.825C108.178 494.42 112.534 490.884 116.937 496.741C117.237 497.15 118.789 496.621 121.28 496.356C109.875 510.115 118.176 523.044 121.196 536.526C130.435 539.256 140.071 543.008 150.069 544.8C161.799 546.905 172.927 544.175 181.998 535.696C184.404 533.459 187.087 531.571 189.649 529.514C190.227 530.813 190.443 532.737 191.442 533.315C204.387 540.892 217.44 548.276 230.469 555.696C229.567 552.726 227.822 550.068 225.44 548.071C215.407 540.314 205.157 532.846 194.931 525.353C194.365 524.932 193.258 525.257 192.404 525.233C193.8 522.238 195.268 520.759 198.756 523.296C210.402 531.787 222.276 539.953 234.006 548.312C236.64 550.2 237.615 552.341 235.401 555.66C234.451 557.055 234.643 560.772 235.786 561.794C252.136 576.382 264.515 594.88 271.77 615.554C272.119 616.347 272.516 617.117 272.973 617.851C285.689 618.091 290.754 614.567 292.667 603.719C285.954 605.235 286.579 602.144 286.916 596.78C287.915 581.386 289.731 565.691 282.934 550.91C294.17 566.148 290.802 583.611 290.333 602.192C292.089 600.4 293.942 599.402 294.086 598.211C296.228 580.171 298.237 562.047 299.957 543.934C299.873 541.769 298.838 539.737 297.142 538.39C291.127 533.928 284.823 529.755 278.386 525.858C277.268 525.185 274.777 526.002 273.298 526.796C270.567 528.263 268.281 530.633 265.466 531.799C264.202 532.328 262.121 530.885 260.401 530.332L278.447 520.831C284.763 525.87 292.474 531.799 299.873 538.077C301.281 539.28 303.951 540.651 304.036 542.623C304.312 549.238 304.697 567.086 301.918 567.086C299.344 581.843 296.853 596.203 294.351 610.551C293.148 617.574 276.305 625.151 270.879 620.629C267.836 618.067 266.272 613.774 263.926 610.334C255.613 598.271 247.444 586.184 239.035 574.158C235.185 568.685 229.891 566.845 222.938 566.869L222.24 564.644Z" fill="black"/>
<path d="M312.878 200.811C316.838 200.811 320.048 197.004 320.048 192.308C320.048 187.612 316.838 183.805 312.878 183.805C308.918 183.805 305.708 187.612 305.708 192.308C305.708 197.004 308.918 200.811 312.878 200.811Z" fill="url(#paint0_linear_210_26)"/>
<path d="M120.053 6.49446C124.672 -0.721597 132.444 -0.216473 139.073 0.216491C157.263 1.41917 175.369 3.82452 193.511 5.66461C206.071 6.93945 243.053 19.5555 256.178 20.0005C263.132 20.229 282.754 7.05972 288.143 3.09089C291.524 0.914043 295.518 -0.0721517 299.524 0.276624C304.385 0.829855 309.1 2.20091 313.504 4.32964C323.284 8.69536 338.948 12.7484 336.759 12.9649L356.26 23.3319L355.707 24.4023C344.879 19.6998 334.124 14.7809 323.224 10.3671C316.86 7.78132 309.991 6.31406 303.771 3.4998C295.518 -0.216473 290.201 4.01695 285.34 9.39291C282.85 12.147 281.166 14.4321 276.618 13.6744C274.212 13.2896 271.289 16.1399 268.726 17.7275C265.021 20.0246 261.448 22.5382 257.814 24.9435C257.417 24.3542 237.062 19.1346 228.4 16.6932C220.423 14.4562 212.64 11.678 206.059 19.9644L211.822 12.5078C200.188 10.5595 189.361 8.26239 178.401 6.99958C162.713 5.2076 146.977 3.88465 131.181 3.0067C127.548 2.76616 123.77 5.29178 120.053 6.49446Z" fill="black"/>
<path d="M233.693 324.59L268.582 312.804C268.389 312.227 268.185 311.601 267.992 311.084L237.567 321.379L237.062 319.984C245.82 316.905 254.446 313.273 263.409 310.916C269.929 309.196 272.961 305.263 275.078 298.793L249.14 307.031L248.611 305.54C256.034 302.93 263.36 299.947 270.916 297.843C276.654 296.496 281.202 292.13 282.766 286.441C284.847 279.923 286.375 273.212 288.781 266.85C289.864 264.108 291.921 261.871 294.556 260.548C299.115 258.768 303.879 257.553 308.74 256.94C310.592 256.952 312.325 257.89 313.347 259.429C315.368 263.915 318.424 264.661 322.972 263.903C339.814 261.053 339.598 265.96 339.393 245.069C339.213 227.655 336.109 210.252 334.052 192.873C333.727 190.083 332.271 187.377 331.092 184.755C324.933 171.093 319.904 168.964 305.828 173.775C302.387 174.977 298.85 175.855 295.362 176.89L294.712 174.869C302.881 172.464 310.941 169.072 319.278 168.074C322.659 167.665 326.653 172.404 331.189 175.29C338.912 172.776 339.55 173.149 343.568 182.278C353.108 203.926 354.395 226.777 351.207 249.688C350.377 255.521 341.174 258.287 339.586 265.322C330.034 264.733 327.279 271.059 325.811 278.744C325.474 279.815 325.065 280.849 324.608 281.871C321.576 291.3 322.202 292.13 332.163 293.73C335.447 294.247 338.672 295.221 341.932 295.93C350.606 297.843 351.268 297.53 353.698 289.111C356.332 279.971 358.907 270.795 361.253 261.582C366.883 239.537 368.628 217.312 363.659 194.894C360.014 177.587 351.34 161.736 338.708 149.336C335.748 146.414 335.58 144.201 336.674 140.124C341.631 121.675 345.962 103.057 350.221 84.4399C352.374 75.0109 353.902 65.4256 355.695 56.0206C355.021 55.6839 354.66 55.3231 354.287 55.3231C341.679 55.1186 341.679 55.1186 339.261 67.6385C339.129 68.2879 338.864 68.9133 338.72 69.5628C335.231 84.8849 332.933 86.0755 317.498 83.4056C309.931 82.1067 302.087 82.5396 294.447 81.5655C292.378 81.3009 289.034 78.9076 288.913 77.284C287.614 59.9173 280.36 45.7738 267.258 34.4086C266.38 33.6509 266.392 31.8829 265.983 30.584C267.559 30.7644 269.436 30.4518 270.663 31.2094C282.814 38.6179 289.623 50.0674 292.474 63.4772C296.589 82.8042 297.046 78.3183 313.744 79.3886C318.845 79.7134 323.994 79.4849 329.107 79.7254C332.909 79.9058 334.93 78.3062 335.58 74.602C336.458 69.5748 337.853 64.6198 338.335 59.5565C338.792 54.7458 340.993 52.9658 345.661 53.1823C349.667 53.495 353.71 53.3627 357.692 52.8095C359.737 52.4607 362.997 50.4041 363.009 49.0451C363.009 46.8081 361.493 43.4888 359.605 42.4665C349.836 37.1747 339.742 32.4963 329.781 27.5533C328.446 26.9279 327.435 25.7733 326.99 24.3662C331.874 26.4348 336.819 28.3711 341.643 30.5961C346.467 32.821 351.532 35.491 356.982 38.209C357.223 33.8794 357.439 30.0909 357.656 26.3145L359.4 26.2304C359.532 28.4192 359.773 30.5961 359.773 32.7729C359.773 37.0665 359.412 41.0834 364.838 43.164C366.041 43.6211 366.39 48.7685 365.608 51.2941C364.826 53.8197 362.155 56.1048 359.809 59.2318C363.262 61.7213 366.835 64.0305 370.54 66.1231C406.259 84.4038 436.432 109.696 464.379 138.187C474.412 148.41 474.917 159.836 473.75 172.38C468.938 223.95 467.482 275.978 453.166 326.322C452.312 329.317 452.107 332.696 450.519 335.234C447.343 340.357 448.546 344.531 451.939 348.704L452.071 348.572C446.934 344.879 442.242 346.732 437.43 349.498C433.207 351.903 428.744 353.899 424.293 356.124C428.925 370.28 420.323 380.839 415.402 392.373C411.18 402.259 403.733 408.296 393.627 411.375C392.989 411.568 392.424 411.796 391.726 412.013C380.213 415.933 367.81 418.531 362.287 431.496L362.42 431.58C364.826 418.351 375.124 413.684 388.165 410.738C384.556 408.561 382.944 407.25 381.115 406.577C375.413 404.472 371.082 396.631 363.406 402.163C363.033 402.439 361.722 401.778 361.108 401.261C356.753 397.569 352.591 393.66 348.14 390.112C337.709 381.789 327.218 373.563 316.668 365.433C313.263 362.811 311.555 355.812 313.456 351.747C317.005 344.11 320.674 336.509 323.718 328.667C327.435 319.046 330.515 309.184 334.16 298.6L323.08 297.698V298.624L329.384 300.573L329.095 301.571L312.553 298.925L316.968 297.302L316.764 296.351H306.057C300.679 307.645 297.792 320.477 289.419 330.58L302.905 296.231L299.777 295.028C298.297 299.19 296.709 303.315 295.374 307.524C292.222 317.434 288.059 325.949 275.944 327.477C270.723 328.138 265.682 330.399 260.666 332.215C254.362 334.524 248.214 336.894 245.098 327.994C243.342 328.836 242.379 329.389 241.357 329.75C240.334 330.111 238.95 330.435 237.747 330.772C236.364 328.403 235.161 326.406 233.958 324.386L233.693 324.59ZM283.872 291.781C287.482 291.396 290.826 291.132 294.159 290.639C299.657 289.809 305.094 288.534 310.604 287.957C318.232 287.163 320.806 285.07 321.588 277.578C321.733 275.016 321.733 272.442 321.588 269.88C317.053 269.003 312.204 269.051 308.355 267.09C303.35 264.529 292.077 267.319 290.225 272.731C288.228 278.768 286.218 284.818 283.872 291.781ZM342.124 299.49C339.333 301.15 336.638 301.788 336.001 303.291C329.986 317.807 324.03 332.408 318.52 347.152C317.257 350.532 317.654 354.537 317.317 358.253L319.519 358.578C328.746 340.49 339.598 323.063 342.124 299.49ZM410.698 212.573H409.904V240.126H410.807L410.698 212.573Z" fill="url(#paint1_linear_210_26)" stroke="#231F20" stroke-width="3" stroke-miterlimit="10"/>
<path d="M451.975 348.716C459.109 349.834 461.166 354.176 460.108 360.887C459.386 365.481 459.639 370.244 458.592 374.73C458.014 377.219 455.656 379.3 454.056 381.525C453.467 382.343 452.637 383.016 452.131 383.87C450.399 386.793 448.775 389.763 446.621 393.588C448.222 397.196 456.15 389.27 457.353 397.196C450.519 397.99 443.951 398.723 437.382 399.517C429.959 400.431 424.678 409.68 427.541 416.354C428.034 417.689 427.962 419.169 427.337 420.444C423.727 426.794 419.829 433.036 415.883 439.229C415.005 440.757 413.718 442.008 412.154 442.837C410.542 443.499 408.545 443.114 406.644 443.186C406.644 441.214 405.922 438.784 406.8 437.317C413.923 425.29 421.045 413.264 428.901 401.754C430.741 399.048 435.18 397.424 438.717 396.703C442.724 395.897 444.3 394.742 442.868 390.581L437.514 391.194C433.689 391.615 432.016 390.28 431.788 386.059C431.427 379.108 430.224 372.204 430.657 365C435.602 372.036 434.194 380.731 436.131 388.428C448.402 388.428 449.004 388.272 450.279 377.099C451.374 367.634 451.542 358.073 452.107 348.548L451.975 348.716ZM458.279 353.394L455.693 353.238L453.96 377.352L456.751 377.508C457.269 369.474 457.786 361.44 458.279 353.394Z" fill="black"/>
<path d="M392.328 535.035C391.81 532.16 391.69 531.787 391.738 531.763C401.423 527.025 402.109 516.513 406.788 508.552C419.276 487.336 432.053 466.278 444.504 445.074C450.243 435.321 455.608 425.35 461.203 415.513C462.201 413.973 463.284 412.506 464.451 411.099L465.979 411.953C462.803 418.603 459.963 425.483 456.354 431.845C441.196 458.147 425.688 484.246 410.53 510.548C407.763 515.359 406.752 521.228 403.648 525.726C401.182 529.298 396.755 531.523 392.328 535.035Z" fill="black"/>
<path d="M313.792 53.8077C319.991 53.8077 325.017 48.7839 325.017 42.5868C325.017 36.3896 319.991 31.3658 313.792 31.3658C307.593 31.3658 302.568 36.3896 302.568 42.5868C302.568 48.7839 307.593 53.8077 313.792 53.8077Z" fill="url(#paint2_linear_210_26)"/>
<path d="M313.72 49.1413C313.937 47.5177 314.141 45.8821 314.49 43.2362L320.229 50.5725C322.057 45.7017 323.441 42.0095 324.632 38.8103C327.76 42.2861 326.942 45.377 320.06 52.9899C315.489 58.0652 310.568 55.5877 306.129 53.2665C301.172 50.6807 299.692 44.054 302.279 39.2914C305.551 33.278 310.063 31.0892 316.427 33.5787C309.69 34.0598 305.118 36.7658 305.684 42.6589C305.948 45.389 309.798 47.7582 312.024 50.2959L313.72 49.1413Z" fill="black"/>
<path d="M318.785 209.314C325.017 210.276 328.47 219.116 323.537 223.289C320 225.983 315.513 227.101 311.122 226.38C306.213 225.177 305.973 219.428 307.091 215.171C308.294 210.601 311.555 207.474 317.065 208.664C317.714 208.809 318.34 209.025 318.966 209.23C317.257 210.192 315.056 210.757 314.021 212.176C312.505 214.257 311.807 216.987 310.761 219.392C313.167 220.09 315.813 221.797 317.702 221.172C319.591 220.547 321.311 217.564 321.54 215.447C321.781 213.499 319.784 211.358 318.785 209.314Z" fill="black"/>
<path d="M306.141 187.678C306.454 194.1 308.15 198.67 313.756 197.299C316.03 196.758 319.278 191.646 318.713 189.518C317.077 183.384 312.036 184.707 305.924 187.666C310.304 181.532 314.406 182.073 318.653 184.31C323.754 186.992 324.415 191.334 322.262 196.193C320.072 201.232 312.818 203.89 308.162 201.16C303.506 198.43 302.628 194.208 306.141 187.678Z" fill="black"/>
<path d="M273.755 138.873C276.702 132.667 279.421 126.93 282.176 121.206L283.523 121.759C281.827 126.064 280.432 130.514 278.362 134.64C275.872 139.619 275.884 143.696 279.385 148.506C283.439 154.075 286.315 160.533 289.707 166.547L288.179 167.4L267.366 135.65L267.824 134.82L273.755 138.873Z" fill="black"/>
<path d="M314.298 58.3177C315.994 60.9757 318.737 63.5253 319.001 66.3155C319.146 67.855 315.08 71.2104 312.986 71.1262C310.893 71.0421 307.885 67.7467 307.621 65.5699C307.356 63.393 310.027 60.8915 311.41 58.5342L314.298 58.3177Z" fill="black"/>
<path d="M385.157 418.11C373.993 420.684 370.793 430.426 365.199 439.085L370.432 442.128C362.973 441.262 361.915 439.073 365.223 433.938C366.306 432.266 367.473 430.642 368.579 428.983C374.438 420.215 374.438 420.215 385.157 418.11Z" fill="black"/>
<path d="M439.03 386.757L433.977 357.327C438.85 366.612 440.991 376.365 439.03 386.757Z" fill="black"/>
<path d="M127.5 514.866C129.184 512.34 130.327 509.009 132.661 507.409C143.548 499.868 156.77 496.465 169.955 497.788C173.264 498.1 177.342 502.117 178.846 505.437C179.832 507.626 177.186 511.787 175.549 514.721C174.479 516.441 172.794 517.692 170.846 518.233C159.862 520.639 148.878 523.573 137.725 524.68C130.062 525.437 126.814 521.071 127.644 514.685C129.942 516.128 132.119 518.582 134.525 518.834C140.432 519.46 146.64 520.037 152.355 518.834C159.116 517.427 165.66 514.505 171.916 511.462C173.6 510.632 174.84 506.832 174.515 504.655C174.25 502.863 171.399 500.181 169.642 500.133C163.784 499.989 157.383 499.568 152.138 501.636C143.572 505.1 135.692 510.416 127.5 514.866Z" fill="black"/>
<path d="M192.356 525.269C193.21 525.269 194.317 524.968 194.882 525.389C205.108 532.882 215.334 540.35 225.392 548.108C227.774 550.104 229.518 552.762 230.421 555.733C217.392 548.312 204.338 540.928 191.394 533.351C190.395 532.774 190.191 530.849 189.601 529.55C190.527 528.131 191.442 526.7 192.356 525.269Z" fill="#414042"/>
<path d="M95.4503 393.636C99.9016 399.156 104.521 404.544 108.684 410.281C109.887 411.953 109.743 414.611 109.093 417.208C102.344 405.182 88.2681 399.313 82.8303 386.757L84.7432 384.989L95.1255 393.275L95.4503 393.636Z" fill="url(#paint3_linear_210_26)"/>
<path d="M177.583 435.188C178.377 437.449 180.53 440.937 179.76 441.791C170.99 451.412 177.21 461.359 178.858 471.16C179.231 473.397 179.917 475.598 180.458 477.811L178.268 478.473C177.547 476.2 176.717 473.963 176.139 471.653C173.444 460.95 170.882 450.222 168.151 439.542C167.489 436.98 165.937 434.623 165.516 432.061C165.155 429.873 165.817 427.515 166.033 425.242L171.399 428.393C170.196 429.247 167.694 430.378 167.79 430.907C168.897 435.718 170.449 440.324 171.88 445.014L173.913 445.159L177.583 435.188Z" fill="black"/>
<path d="M270.699 577.934C266.139 578.066 261.544 573.508 261.279 568.601C261.207 563.754 265.069 559.75 269.917 559.653C275.234 559.569 279.614 563.803 279.698 569.118C279.698 569.142 279.698 569.154 279.698 569.179C279.806 573.448 275.343 577.766 270.699 577.934ZM276.931 569.203C273.418 566.869 271.349 565.198 269.003 564.163C268.533 563.947 265.935 566.569 266.163 567.05C267.006 569.335 268.449 571.343 270.338 572.883C271.06 573.364 273.658 571.115 276.931 569.203Z" fill="black"/>
<path d="M203.713 486.037C198.985 482.429 194.004 478.978 189.697 474.877C188.651 473.878 188.964 470.066 190.01 468.478C193.704 462.73 197.926 457.318 202.137 451.906C202.895 450.931 204.543 450.583 205.746 449.933C205.818 451.473 206.528 453.409 205.854 454.479C202.919 459.134 199.683 463.608 196.35 467.997C193.186 472.159 193.535 475.358 197.974 478.388C200.477 480.313 202.835 482.417 205.036 484.666L203.713 486.037Z" fill="black"/>
<path d="M73.7471 403.197C71.9666 400.239 70.0297 397.376 67.9364 394.622C61.8249 387.334 55.4968 380.19 51.7673 375.957C57.4337 379.108 65.3498 386.107 72.0869 394.189C76.3457 399.3 79.1248 405.651 82.5655 411.447L73.7471 403.197Z" fill="white"/>
<path d="M177.583 435.188L173.973 445.159L171.94 445.014C170.509 440.324 168.957 435.669 167.85 430.907C167.718 430.378 170.172 429.247 171.459 428.393L177.583 435.188Z" fill="white"/>
<path d="M77.284 117.55C77.9337 118.62 79.3773 119.955 79.1247 120.701C76.105 129.384 72.8207 137.983 69.1153 147.965C67.6355 136.456 73.5666 128.277 76.3336 119.305L77.284 117.55Z" fill="url(#paint4_linear_210_26)"/>
<path d="M266.079 549.022C270.759 547.506 275.054 543.285 281.984 547.927L266.585 551.463L266.079 549.022Z" fill="black"/>
<path d="M170.112 163.768C162.978 173.089 155.856 182.446 148.637 191.707C145.906 195.206 145.377 198.369 149.263 201.328C153.51 204.551 152.667 207.834 151.368 212.717C148.878 222.062 148.144 231.96 147.17 241.582C146.64 247.787 146.496 254.029 146.736 260.259C146.845 265.19 144.812 267.619 139.939 268.245C123.157 270.374 106.374 272.587 89.6154 274.884C85.874 275.389 84.1055 273.681 82.5535 270.458C69.9816 244.203 59.7075 216.915 51.8516 188.88C51.3223 186.992 51.3704 184.984 51.9599 183.119C54.6788 175.627 57.7225 168.23 60.67 160.75C67.4793 160.533 69.4282 165.488 71.4975 170.058C77.3323 183.011 82.9626 196.06 88.7853 209.013C92.8517 218.033 92.7675 216.83 102.151 215.568C115.493 213.776 121.4 207.365 123.241 194.064C126.128 173.438 139.001 158.2 154.075 144.754C159.886 139.571 165.817 134.543 172.626 128.626L195.46 148.759L179.471 160.786L180.302 162.073L199.442 150.262L200.272 151.597C193.511 156.408 187.039 161.676 179.82 165.633C177.535 166.835 173.3 164.598 169.943 163.937L178.557 161.724C175.104 160.942 170.846 158.765 169.606 159.896C163.675 165.272 158.574 171.538 153.185 177.491L154.701 178.838C156.289 176.649 158.009 174.568 159.862 172.596C163.074 169.517 166.659 166.703 170.112 163.768ZM87.1011 252.129L85.7777 252.839C88.3162 258.034 90.8666 263.23 94.0066 269.616H84.1295L84.1897 271.697C86.8725 271.889 89.5794 271.889 92.2622 271.697C106.085 269.628 119.836 266.994 133.707 265.298C144.475 263.987 146.363 261.69 142.369 251.239C141.912 253.332 142.538 255.725 141.744 257.481C140.793 259.598 138.832 262.508 136.932 262.773C123.542 264.661 110.079 265.972 95.9194 267.583C93.3329 262.869 90.241 257.493 87.1853 252.129H87.1011ZM130.928 248.858H133.274C132.745 239.753 132.216 230.649 131.674 221.545H130.928V248.858Z" fill="#414042"/>
<path d="M233.958 324.386C235.161 326.394 236.364 328.403 237.711 330.736C238.914 330.399 240.178 330.135 241.32 329.714C242.463 329.293 243.306 328.8 245.062 327.958C248.178 336.858 254.325 334.488 260.629 332.179C265.646 330.363 270.687 328.102 275.908 327.441C288.023 325.913 292.186 317.398 295.338 307.488C296.673 303.279 298.261 299.154 299.741 294.992L302.869 296.195L289.382 330.544C297.804 320.441 300.643 307.609 306.021 296.315H316.728L316.932 297.265L312.553 298.913L329.095 301.559L329.384 300.561L323.08 298.612V297.686L334.16 298.588C330.551 309.16 327.435 319.034 323.718 328.655C320.698 336.497 317.005 344.098 313.456 351.735C311.555 355.824 313.263 362.799 316.668 365.421C327.291 373.563 337.793 381.814 348.176 390.148C352.627 393.696 356.79 397.605 361.145 401.297C361.758 401.814 363.069 402.5 363.442 402.199C371.118 396.667 375.473 404.508 381.151 406.613C382.98 407.286 384.58 408.597 388.201 410.774C375.16 413.721 364.862 418.387 362.456 431.616L348.428 419.806L358.51 433.841C353.902 430.979 348.284 429.452 347.358 421.598C346.888 417.629 343.147 413.252 339.706 410.558C325.185 399.192 310.267 388.332 295.374 377.484C293.521 376.39 291.392 375.86 289.25 375.945C286.363 376.041 283.487 376.341 280.636 376.859C265.586 378.843 265.586 378.843 257.261 390.509L259.667 381.657L257.838 380.635L252.004 387.382C251.294 386.396 249.597 384.676 249.886 384.339C251.703 381.826 253.495 378.254 256.046 377.496C263.469 375.271 271.228 374.213 278.904 372.685C281.936 372.156 284.931 371.398 287.855 370.412C274.007 373.142 258.897 370.785 245.026 380.455L235.161 374.381L234.487 375.367L246.133 384.399C237.711 385.169 233.152 379.228 227.702 375.187C226.896 374.598 226.379 372.878 225.741 372.89C216.73 373.058 218.258 366.876 218.523 361.32C218.799 355.307 218.45 349.209 219.569 343.376C220.183 340.129 222.661 335.535 225.296 334.729C230.962 332.961 232.923 329.389 233.958 324.386ZM254.59 355.956C254.614 348.812 248.852 343.003 241.705 342.979C241.669 342.979 241.621 342.979 241.585 342.979C234.102 343.16 229.266 348.403 229.109 356.521C228.977 363.737 233.705 368.921 240.166 368.741C247.841 368.5 254.566 362.559 254.59 355.956ZM308.956 378.915L307.585 380.37L350.281 414.334L351.544 412.71L308.956 378.915ZM226.186 369.907V338.072L223.467 338C222.878 347.116 222.264 356.245 221.663 366.095L226.186 369.907Z" fill="white"/>
<path d="M204.543 312.491C187.7 311.289 179.507 298.769 173.023 286.177C156.998 255.064 160.644 203.805 189.348 177.936C191.081 176.372 193.138 175.158 196.314 172.873L202.534 181.376L203.905 180.173C203.16 179.09 202.498 177.96 201.896 176.793C201.343 175.218 200.886 173.606 200.525 171.983C201.511 172.464 202.438 173.053 203.304 173.739C208.116 179.572 212.928 185.429 217.668 191.298C179.568 219.993 189.806 275.136 229.506 294.547C228.003 300.741 226.451 307.103 224.935 313.357C212.158 313.766 189.565 300.825 189.072 293.068L185.667 294.271C185.944 292.334 186.738 289.929 186.257 289.64C167.742 278.528 170.088 259.706 169.751 242.664C169.342 221.689 176.548 202.639 189.601 185.994C190.672 184.623 191.658 183.18 192.693 181.772L191.346 180.498C188.097 184.286 184.356 187.714 181.721 191.887C164.77 218.346 161.654 247.03 171.375 276.279C176.524 291.829 188.53 303.375 203.352 311.277C203.833 311.529 204.086 312.203 204.447 312.684L204.543 312.491Z" fill="url(#paint5_linear_210_26)"/>
<path d="M89.4109 351.53L65.819 337.098C68.7905 336.184 71.4011 334.428 73.3621 334.981C78.439 336.413 83.2632 338.818 88.1597 340.899C93.7057 343.304 99.1075 346.647 105.327 342.582C106.422 341.873 107.914 341.801 109.069 341.163C118.416 335.931 127.115 336.942 136.739 341.752C159.176 353.034 179.291 367.418 198.095 383.846C196.699 388.368 195.46 391.952 189.409 392.145C186.666 392.241 183.706 395.921 181.456 398.507C178.726 401.658 176.644 405.362 174.154 409.03C167.297 405.194 161.402 401.273 159.392 392.962C158.286 388.368 155.158 384.243 152.896 379.925C152.499 379.168 151.296 378.242 151.464 377.869C155.254 369.787 148.168 367.43 143.777 364.844C134.429 359.336 124.528 354.777 114.759 350.039C109.887 347.633 106.47 350.785 102.729 353.479C100.19 355.319 96.8938 356.136 93.9825 357.387L111.198 369.065C102.668 372.445 94.2712 375.884 85.7656 379.035C84.2016 379.625 81.7354 379.769 80.4842 378.927C68.8988 371.134 57.4939 363.088 45.5957 354.874C45.5957 355.367 45.4513 354.874 45.5957 354.525C56.0742 338.205 56.6998 337.988 74.3727 346.214C79.0887 348.403 83.6121 351.025 88.2198 353.43C88.689 352.865 89.0499 352.18 89.4109 351.53Z" fill="url(#paint6_linear_210_26)"/>
<path d="M96.1721 208.724C95.739 204.9 94.1991 200.426 94.9691 196.397C97.1707 185.02 100.323 173.811 102.187 162.061L88.9538 193.739C87.1011 189.614 85.9341 185.104 83.3476 181.712C75.7443 171.526 75.3593 161.159 80.0151 149.649C84.3461 138.957 87.7147 127.869 91.4441 116.936C95.9796 103.635 102.476 102.203 117.177 103.406C114.892 110.37 112.979 117.453 110.236 124.2C107.385 131.236 106.025 137.346 115.048 140.617L106.434 155.963L107.276 156.576C113.123 149.926 118.645 142.974 124.889 136.732C131.133 130.49 138.363 124.705 144.86 119.005L166.057 129.949C162.208 133.04 158.105 136.335 154.027 139.571C145.738 134.688 144.018 134.543 137.509 142.373C129.533 152.018 122.074 161.964 115.156 172.211C112.125 176.661 110.946 182.037 117.562 185.729C118.765 186.403 119.247 189.337 119.199 191.153C118.79 204.323 110.284 208.544 96.1721 208.724Z" fill="#D0D0CF"/>
<path d="M304.457 442.837L316.271 423.366C303.711 407.9 288.949 396.029 272.961 385.818C289.683 378.867 302.448 387.815 315.14 396.342C323.08 401.67 330.37 407.948 338.299 413.276C342.81 416.294 343.556 419.445 341.799 424.304C337.324 436.764 337.914 437.93 349.018 444.509C352.831 446.77 356.441 449.32 360.098 451.725C356.489 464.955 362.191 489.14 369.241 491.041C369.53 498.353 364.152 499.94 358.726 500.554C357.283 500.722 354.552 497.884 353.998 495.972C352.795 491.75 352.795 487.18 351.893 482.838C350.919 477.907 347.899 473.626 343.568 471.064C333.57 464.51 324.319 456.897 314.634 449.801C311.362 447.383 307.849 445.147 304.457 442.837Z" fill="white"/>
<path d="M232.947 291.156L225.404 288.654C230.385 280.019 225.693 274.547 219.894 269.027C216.935 266.212 215.455 261.811 212.375 259.129C209.668 256.807 205.674 255.99 202.245 254.51L200.032 255.954C199.875 246.332 199.442 236.615 199.695 226.969C199.791 223.06 201.391 219.681 206.913 221.16C208.309 221.533 211.064 219.32 212.207 217.636C216.923 210.637 223.335 205.982 230.734 201.893C234.271 208.219 236.821 212.513 231.407 219.404C222.409 230.854 223.732 250.205 236.051 260.536C237.254 261.57 237.88 264.348 237.591 266.128C236.364 274.222 234.668 282.244 232.947 291.156Z" fill="#424242"/>
<path d="M146.941 296.339C146.436 293.838 145.738 291.384 144.848 289.003C141.611 282.04 142.502 277.674 147.771 276.231C154.917 286.85 154.917 286.85 165.757 284.457C173.769 293.874 180.783 303.7 189.445 311.83C198.107 319.96 208.369 326.262 217.259 332.865C216.562 340.85 215.84 349.233 215.118 357.64C203.941 352.54 201.812 348.788 202.594 336.87C202.678 335.523 201.307 333.562 200.056 332.708C184.813 322.329 169.51 312.058 154.135 301.872C151.476 300.296 148.733 298.853 145.918 297.554L146.941 296.339Z" fill="white"/>
<path d="M128.089 277.987L139.506 276.387C140.625 283.603 145.196 290.458 138.712 296.977C136.51 299.13 133.815 300.729 130.868 301.619C111.294 307.428 91.5883 312.828 72.0267 318.685C65.8791 320.537 66.0114 320.994 60.5496 315.077C66.0475 309.821 71.6176 304.494 77.1998 299.202C77.669 298.757 78.475 297.999 78.7999 298.179C87.2212 301.92 93.4651 294.92 100.864 293.621C107.408 292.479 113.725 290.013 120.257 288.811C126.116 287.608 130.134 285.708 128.089 277.987Z" fill="white"/>
<path d="M182.395 179.463C172.47 190.793 165.757 204.563 162.978 219.368C162.111 224.179 159.982 225.381 155.013 223.517C155.013 214.209 159.826 203.818 151.031 194.834C158.25 198.225 159.765 193.282 162.304 188.952C166.202 182.278 170.1 175.254 179.147 173.739C180.205 175.579 181.288 177.491 182.395 179.463Z" fill="white"/>
<path d="M144.222 115.758L135.801 122.42C127.524 112.799 122.82 122.228 115.866 125.86L122.182 107.146L144.222 115.758Z" fill="#414042"/>
<path d="M53.3193 206.223C60.658 226.356 67.9846 246.488 75.3111 266.621L73.7592 267.199C65.807 247.27 54.7028 228.508 53.3193 206.223Z" fill="white"/>
<path d="M80.8451 389.306C74.0599 380.022 61.103 378.35 55.7253 365.878C70.8477 370.713 82.2286 381.224 80.8451 389.306Z" fill="url(#paint7_linear_210_26)"/>
<path d="M246.181 257.072C233.777 252.514 229.037 237.601 235.257 227.558C236.063 226.272 238.156 225.778 239.66 224.912C239.383 226.32 238.902 227.667 238.229 228.929C234.162 234.486 236.34 246.501 242.379 252.069C243.799 253.62 245.074 255.292 246.181 257.072Z" fill="white"/>
<path d="M72.2673 153.101L84.2979 113.833C87.113 119.077 87.0047 119.305 80.8571 134.567C78.3307 140.833 76.0449 147.208 73.6388 153.546L72.2673 153.101Z" fill="url(#paint8_linear_210_26)"/>
<path d="M110.043 441.526L103.751 442.007L95.0532 419.157L96.0517 418.627L110.043 441.526Z" fill="white"/>
<path d="M404.094 466.999L388.141 497.307L385.976 496.104C391.462 486.037 396.947 475.971 402.445 465.905L404.094 466.999Z" fill="#414042"/>
<path d="M238.409 447.708L236.364 495.887H235.089L237.398 447.708H238.409Z" fill="white"/>
<path d="M227.172 410.798C224.02 406.709 227.557 399.457 219.786 399.625C220.231 398.206 220.868 396.871 221.686 395.632C222.793 394.646 224.02 393.816 225.356 393.167C225.861 398.05 226.475 403.979 227.172 410.798Z" fill="white"/>
<path d="M204.411 312.636L224.333 319.274C217.115 321.608 209.054 318.493 204.567 312.491L204.411 312.636Z" fill="white"/>
<path d="M265.514 416.15L283.127 430.69L281.924 432.158L264.612 417.004L265.514 416.15Z" fill="white"/>
<path d="M276.209 396.342C279.385 398.988 284.751 400.395 279.818 405.963C276.365 403.786 271.541 402.379 276.209 396.342Z" fill="white"/>
<path d="M270.892 394.538L261.267 395.452L264.876 387.033L270.892 392.325V394.538Z" fill="white"/>
<path d="M272.852 435.85L270.855 438.255H267.92H268.16L263.288 434.755L265.261 431.46C265.598 431.713 265.802 432.097 265.827 432.518L265.959 432.795L265.839 432.326L267.487 432.855L272.852 435.85Z" fill="black"/>
<path d="M110.994 333.887L108.082 331.482L108.419 329.99L115.228 331.975L110.741 334.067L110.994 333.887Z" fill="white"/>
<path d="M115.228 331.77L110.717 336.858L109.719 335.944L110.994 333.887L110.741 334.067C112.233 333.298 113.725 332.528 115.228 331.77Z" fill="white"/>
<path d="M272.852 435.85L267.487 432.831L267.282 432.975L268.088 431.316L272.852 435.85Z" fill="white"/>
<path d="M115.228 331.77C113.725 332.528 112.233 333.298 110.741 334.067L115.228 331.975V331.77Z" fill="black"/>
<path d="M265.827 432.506C265.803 432.097 265.598 431.713 265.261 431.46L268.088 431.352C267.824 431.905 267.559 432.446 267.282 432.999L267.487 432.855L265.839 432.326L265.827 432.506Z" fill="white"/>
<path d="M267.282 432.999C267.559 432.446 267.824 431.905 268.088 431.352C267.824 431.893 267.559 432.446 267.282 432.999Z" fill="black"/>
<path d="M283.872 291.781C286.218 284.818 288.227 278.768 290.297 272.731C292.149 267.319 303.422 264.529 308.427 267.09C312.252 269.051 317.101 269.003 321.66 269.881C321.805 272.442 321.805 275.016 321.66 277.578C320.878 285.07 318.304 287.199 310.676 287.957C305.166 288.534 299.729 289.809 294.231 290.639C290.826 291.132 287.445 291.396 283.872 291.781Z" fill="#414042"/>
<path d="M342.124 299.49C339.598 323.063 328.746 340.49 319.495 358.578L317.293 358.253C317.654 354.537 317.293 350.532 318.496 347.152C324.006 332.408 329.913 317.807 335.977 303.291C336.638 301.787 339.333 301.15 342.124 299.49Z" fill="#414042"/>
<path d="M410.806 212.573V240.114H410.012V212.573H410.806Z" fill="white"/>
<path d="M458.279 353.394C457.774 361.416 457.268 369.45 456.751 377.508L453.96 377.352L455.692 353.238L458.279 353.394Z" fill="white"/>
<path d="M318.785 209.314C319.784 211.358 321.733 213.499 321.54 215.423C321.324 217.54 319.507 220.535 317.702 221.148C315.898 221.761 313.107 220.066 310.761 219.368C311.807 216.963 312.505 214.257 314.021 212.152C315.056 210.733 317.257 210.168 318.966 209.206L318.785 209.314Z" fill="url(#paint9_linear_210_26)"/>
<path d="M127.5 514.866C135.692 510.38 143.572 505.1 152.186 501.636C157.431 499.568 163.832 499.989 169.691 500.133C171.447 500.133 174.298 502.863 174.563 504.655C174.888 506.832 173.649 510.668 171.964 511.462C165.708 514.505 159.164 517.475 152.403 518.834C146.688 520.037 140.48 519.46 134.573 518.834C132.167 518.582 129.99 516.128 127.692 514.685L127.5 514.866ZM167.381 506.447L166.96 503.536C165.107 503.188 163.05 502.141 161.438 502.61C154.388 504.619 147.434 506.952 140.553 509.442C139.229 509.923 138.351 511.655 137.268 512.797C138.652 513.699 140.36 515.623 141.359 515.311C150.105 512.544 158.719 509.406 167.381 506.399V506.447Z" fill="url(#paint10_linear_210_26)"/>
<path d="M276.931 569.203C273.634 571.115 271.06 573.364 270.338 572.883C268.449 571.343 267.006 569.335 266.163 567.05C265.935 566.557 268.57 563.947 269.003 564.163C271.349 565.198 273.418 566.869 276.931 569.203Z" fill="url(#paint11_linear_210_26)"/>
<path d="M87.1851 252.129C90.289 257.493 93.3809 262.869 96.0516 267.499C110.212 265.924 123.722 264.613 137.064 262.689C138.916 262.424 140.877 259.513 141.876 257.397C142.67 255.641 142.044 253.248 142.502 251.155C146.496 261.606 144.607 263.903 133.84 265.214C119.968 266.91 106.169 269.544 92.3944 271.612C89.7116 271.805 87.0047 271.805 84.3219 271.612L84.2617 269.532H94.1388C90.9988 263.146 88.4483 257.95 85.9099 252.754L87.1851 252.129Z" fill="black"/>
<path d="M170.112 163.768C166.659 166.703 163.074 169.517 159.778 172.632C157.925 174.604 156.204 176.685 154.616 178.874L153.101 177.527C158.49 171.574 163.591 165.308 169.522 159.932C170.725 158.801 175.02 160.978 178.473 161.76L169.859 163.973L170.112 163.768Z" fill="black"/>
<path d="M130.964 248.858V221.569H131.698C132.228 230.673 132.757 239.777 133.298 248.882L130.964 248.858Z" fill="black"/>
<path d="M254.578 355.956C254.578 362.559 247.841 368.524 240.141 368.741C233.681 368.921 228.953 363.689 229.085 356.521C229.242 348.403 234.078 343.16 241.561 342.979C248.707 342.931 254.53 348.68 254.578 355.824C254.578 355.872 254.578 355.908 254.578 355.956ZM244.617 353.996L244.821 354.224C243.378 349.053 239.371 349.101 236.051 351.145C234.078 352.348 231.949 356.353 232.574 358.169C233.909 362.006 237.037 366.155 241.994 364.182C246.638 362.487 247.191 358.301 244.617 353.996Z" fill="black"/>
<path d="M308.944 378.915L351.532 412.71L350.269 414.334L307.573 380.37L308.944 378.915Z" fill="black"/>
<path d="M226.174 369.907L221.65 366.095C222.288 356.245 222.853 347.116 223.455 338L226.174 338.072V369.907Z" fill="black"/>
<path d="M265.839 432.326L265.959 432.795C265.959 432.795 265.839 432.53 265.827 432.518L265.839 432.326Z" fill="white"/>
<path d="M167.381 506.399C158.719 509.405 150.105 512.544 141.359 515.263C140.36 515.575 138.652 513.651 137.268 512.749C138.351 511.546 139.229 509.875 140.553 509.393C147.434 506.904 154.388 504.583 161.438 502.562C163.05 502.093 165.047 503.14 166.96 503.488L167.381 506.399Z" fill="black"/>
<path d="M244.617 353.996C247.143 358.301 246.638 362.414 241.994 364.242C237.037 366.155 233.91 362.006 232.574 358.229C231.949 356.413 234.078 352.408 236.051 351.205C239.371 349.161 243.378 349.113 244.821 354.284C243.618 353.719 242.415 352.54 241.356 352.721C239.564 352.937 237.916 353.791 236.713 355.126C236.183 355.908 237.314 358.999 238.24 359.287C240.021 359.636 241.862 359.251 243.341 358.217C244.28 357.495 244.232 355.439 244.617 353.996Z" fill="white"/>
<path d="M244.617 353.996C244.232 355.439 244.28 357.495 243.342 358.169C241.862 359.203 240.021 359.588 238.241 359.239C237.314 358.951 236.183 355.86 236.713 355.078C237.916 353.743 239.564 352.889 241.357 352.673C242.391 352.492 243.654 353.671 244.821 354.236L244.617 353.996Z" fill="black"/>
</g>
<defs>
<linearGradient id="paint0_linear_210_26" x1="305.708" y1="192.308" x2="320.048" y2="192.308" gradientUnits="userSpaceOnUse">
<stop stop-color="#FFCF65"/>
<stop offset="0.36" stop-color="#E79642"/>
<stop offset="0.81" stop-color="#BE6528"/>
</linearGradient>
<linearGradient id="paint1_linear_210_26" x1="233.693" y1="227.973" x2="474.195" y2="227.973" gradientUnits="userSpaceOnUse">
<stop stop-color="#FFCF65"/>
<stop offset="0.36" stop-color="#E79642"/>
<stop offset="0.81" stop-color="#BE6528"/>
</linearGradient>
<linearGradient id="paint2_linear_210_26" x1="302.568" y1="42.5869" x2="325.017" y2="42.5869" gradientUnits="userSpaceOnUse">
<stop stop-color="#FFCF65"/>
<stop offset="0.36" stop-color="#E79642"/>
<stop offset="0.81" stop-color="#BE6528"/>
</linearGradient>
<linearGradient id="paint3_linear_210_26" x1="82.8303" y1="401.099" x2="109.587" y2="401.099" gradientUnits="userSpaceOnUse">
<stop stop-color="#FFCF65"/>
<stop offset="0.36" stop-color="#E79642"/>
<stop offset="0.81" stop-color="#BE6528"/>
</linearGradient>
<linearGradient id="paint4_linear_210_26" x1="68.8819" y1="132.758" x2="79.154" y2="132.758" gradientUnits="userSpaceOnUse">
<stop stop-color="#FFCF65"/>
<stop offset="0.36" stop-color="#E79642"/>
<stop offset="0.81" stop-color="#BE6528"/>
</linearGradient>
<linearGradient id="paint5_linear_210_26" x1="163.569" y1="242.675" x2="229.506" y2="242.675" gradientUnits="userSpaceOnUse">
<stop stop-color="#FFCF65"/>
<stop offset="0.36" stop-color="#E79642"/>
<stop offset="0.81" stop-color="#BE6528"/>
</linearGradient>
<linearGradient id="paint6_linear_210_26" x1="45.5314" y1="371.953" x2="198.095" y2="371.953" gradientUnits="userSpaceOnUse">
<stop stop-color="#FFCF65"/>
<stop offset="0.36" stop-color="#E79642"/>
<stop offset="0.81" stop-color="#BE6528"/>
</linearGradient>
<linearGradient id="paint7_linear_210_26" x1="55.7253" y1="377.592" x2="80.959" y2="377.592" gradientUnits="userSpaceOnUse">
<stop stop-color="#FFCF65"/>
<stop offset="0.36" stop-color="#E79642"/>
<stop offset="0.81" stop-color="#BE6528"/>
</linearGradient>
<linearGradient id="paint8_linear_210_26" x1="72.2673" y1="133.69" x2="86.0303" y2="133.69" gradientUnits="userSpaceOnUse">
<stop stop-color="#FFCF65"/>
<stop offset="0.36" stop-color="#E79642"/>
<stop offset="0.81" stop-color="#BE6528"/>
</linearGradient>
<linearGradient id="paint9_linear_210_26" x1="310.761" y1="215.243" x2="321.553" y2="215.243" gradientUnits="userSpaceOnUse">
<stop stop-color="#FFCF65"/>
<stop offset="0.36" stop-color="#E79642"/>
<stop offset="0.81" stop-color="#BE6528"/>
</linearGradient>
<linearGradient id="paint10_linear_210_26" x1="127.5" y1="509.767" x2="174.615" y2="509.767" gradientUnits="userSpaceOnUse">
<stop stop-color="#FFCF65"/>
<stop offset="0.36" stop-color="#E79642"/>
<stop offset="0.81" stop-color="#BE6528"/>
</linearGradient>
<linearGradient id="paint11_linear_210_26" x1="266.149" y1="568.55" x2="276.931" y2="568.55" gradientUnits="userSpaceOnUse">
<stop stop-color="#FFCF65"/>
<stop offset="0.36" stop-color="#E79642"/>
<stop offset="0.81" stop-color="#BE6528"/>
</linearGradient>
<clipPath id="clip0_210_26">
<rect width="476" height="622" fill="white"/>
</clipPath>
</defs>
</svg>
